<?xml version="1.0" encoding="UTF-8" standalone="no"?>
<!DOCTYPE svg PUBLIC "-//W3C//DTD SVG 1.1//EN" "http://www.w3.org/Graphics/SVG/1.1/DTD/svg11.dtd">
<svg version="1.1" xmlns="http://www.w3.org/2000/svg" xmlns:xlink="http://www.w3.org/1999/xlink" preserveAspectRatio="xMidYMid meet" viewBox="0 0 640 640" width="640" height="640"><defs><path d="M433.37 284.4C433.37 352.87 372.07 408.46 296.56 408.46C221.06 408.46 159.76 352.87 159.76 284.4C159.76 215.93 221.06 160.34 296.56 160.34C372.07 160.34 433.37 215.93 433.37 284.4Z" id="b1ruWoWsR3"></path><path d="M280.37 280.41C280.37 335.44 266.83 380.11 250.16 380.11C233.49 380.11 219.95 335.44 219.95 280.41C219.95 225.39 233.49 180.72 250.16 180.72C266.83 180.72 280.37 225.39 280.37 280.41Z" id="b2soRRZ4"></path><path d="M392.72 365.91C392.72 379.61 357.91 390.73 315.03 390.73C272.16 390.73 237.35 379.61 237.35 365.91C237.35 352.22 272.16 341.1 315.03 341.1C357.91 341.1 392.72 352.22 392.72 365.91Z" id="dLwoUo7T0"></path><path d="" id="dThpEGJVy"></path><path d="M111.62 431.76L111.62 524L154.2 524L154.2 560.66L73.78 560.66L73.78 431.76L111.62 431.76Z" id="a3qCG5GRUK"></path><path d="M224.68 431.76L224.68 528.73L249.99 528.73L249.99 431.76L273.64 431.76L273.64 560.66L196.77 560.66L193.22 431.76L224.68 431.76Z" id="n10bgDlBGi"></path><path d="M346.96 431.76L346.96 460.14L320 460.14L320 435.3L346.96 431.76Z" id="dag3F816z"></path><path d="M346.96 484.97L346.96 560.66L315.03 560.66L315.03 481.43L346.96 484.97Z" id="b6CWbOKm5"></path><path d="M447.49 464.87L413.19 464.87L415.55 541.74L466.41 541.74L466.41 525.18L433.37 525.18L433.37 508.63L482.96 508.63L485.33 560.66L388.35 560.66L383.61 441.22L447.49 441.22L447.49 464.87Z" id="b4ylow4OZj"></path><path d="M514.89 455.41L551.55 455.41L551.55 431.76L514.89 431.76L514.89 455.41Z" id="f2N3MbYcNN"></path><path d="" id="b2CuG3ZIl"></path><path d="M544.46 486.16L544.46 560.66L517.26 560.66L514.89 486.16L544.46 486.16Z" id="baa9i0zh5"></path></defs><g><g><g><use xlink:href="#b1ruWoWsR3" opacity="1" fill="#e7e5df" fill-opacity="1"></use></g><g><use xlink:href="#b2soRRZ4" opacity="1" fill="#09d702" fill-opacity="1"></use></g><g><use xlink:href="#dLwoUo7T0" opacity="1" fill="#11d702" fill-opacity="1"></use></g><g><g><use xlink:href="#dThpEGJVy" opacity="1" fill-opacity="0" stroke="#000000" stroke-width="1" stroke-opacity="1"></use></g></g><g><use xlink:href="#a3qCG5GRUK" opacity="1" fill="#98d702" fill-opacity="1"></use><g><use xlink:href="#a3qCG5GRUK" opacity="1" fill-opacity="0" stroke="#000000" stroke-width="1" stroke-opacity="1"></use></g></g><g><use xlink:href="#n10bgDlBGi" opacity="1" fill="#98d702" fill-opacity="1"></use><g><use xlink:href="#n10bgDlBGi" opacity="1" fill-opacity="0" stroke="#000000" stroke-width="1" stroke-opacity="1"></use></g></g><g><use xlink:href="#dag3F816z" opacity="1" fill="#98d702" fill-opacity="1"></use><g><use xlink:href="#dag3F816z" opacity="1" fill-opacity="0" stroke="#000000" stroke-width="1" stroke-opacity="1"></use></g></g><g><use xlink:href="#b6CWbOKm5" opacity="1" fill="#98d702" fill-opacity="1"></use><g><use xlink:href="#b6CWbOKm5" opacity="1" fill-opacity="0" stroke="#000000" stroke-width="1" stroke-opacity="1"></use></g></g><g><use xlink:href="#b4ylow4OZj" opacity="1" fill="#98d702" fill-opacity="1"></use><g><use xlink:href="#b4ylow4OZj" opacity="1" fill-opacity="0" stroke="#000000" stroke-width="1" stroke-opacity="1"></use></g></g><g><use xlink:href="#f2N3MbYcNN" opacity="1" fill="#98d702" fill-opacity="1"></use><g><use xlink:href="#f2N3MbYcNN" opacity="1" fill-opacity="0" stroke="#000000" stroke-width="1" stroke-opacity="1"></use></g></g><g><use xlink:href="#b2CuG3ZIl" opacity="1" fill="#98d702" fill-opacity="1"></use><g><use xlink:href="#b2CuG3ZIl" opacity="1" fill-opacity="0" stroke="#000000" stroke-width="1" stroke-opacity="1"></use></g></g><g><use xlink:href="#baa9i0zh5" opacity="1" fill="#98d702" fill-opacity="1"></use><g><use xlink:href="#baa9i0zh5" opacity="1" fill-opacity="0" stroke="#000000" stroke-width="1" stroke-opacity="1"></use></g></g></g></g></svg>